<svg width="1240" height="228" viewBox="0 0 1240 228" fill="none" xmlns="http://www.w3.org/2000/svg">
<path d="M82.0289 223.883C82.0289 224.534 81.5545 224.96 80.8509 224.96H1.17804C0.470411 224.96 0 224.534 0 223.883V218.369C0 217.722 0.474404 217.398 1.06142 217.398H36.4068V178.817H1.17804C0.470411 178.817 0 178.383 0 177.732V172.112C0 171.571 0.474404 171.141 1.06142 171.141H80.8509C81.5585 171.141 82.0289 171.575 82.0289 172.218V177.732C82.0289 178.383 81.5545 178.817 80.8509 178.817H43.9696V217.398H80.8509C81.5585 217.398 82.0289 217.832 82.0289 218.369V223.883Z" fill="black"/>
<path d="M74.4622 123.391V89.8903C74.4622 89.2396 74.9366 88.8057 75.6482 88.8057H80.9675C81.5586 88.8057 82.0289 89.2396 82.0289 89.7763V129.872C82.0289 130.523 81.5545 130.95 80.8509 130.95H1.17804C0.470411 130.95 0 130.523 0 129.872V90.8571C0 90.2064 0.474432 89.7725 1.17804 89.7725H6.38071C7.09236 89.7725 7.56685 90.2064 7.56685 90.8571V123.388H36.4068V96.044C36.4068 95.3933 36.8812 94.9596 37.5849 94.9596H42.7876C43.4992 94.9596 43.9737 95.3933 43.9737 96.044V123.388L74.4622 123.391Z" fill="black"/>
<path d="M49.4061 36.6261L1.53652 62.3445C0.708269 62.8849 0.117188 62.5653 0.117188 61.5911V55.2127C0.117188 54.562 0.475026 54.0217 1.06204 53.6982L41.7227 32.733L1.06204 11.8707C0.471006 11.5509 0.117188 10.9002 0.117188 10.3598V3.98167C0.117188 3.11776 0.708269 2.79796 1.53652 3.2244L49.2896 28.9502H80.8515C81.5592 28.9502 82.0296 29.3841 82.0296 30.0274V35.5417C82.0296 36.1924 81.5551 36.5195 80.8515 36.5195L49.4061 36.6261Z" fill="black"/>
<path d="M370.925 204.495C373.02 204.495 374.419 205.774 374.419 207.693V221.758C374.419 223.677 373.02 224.956 370.925 224.956H202.002C197.805 224.956 196.755 223.037 198.854 219.843L330.003 23.5019H205.146C203.052 23.5019 201.652 22.2226 201.652 20.6234V6.23129C201.652 4.316 203.052 3.03662 205.146 3.03662H366.028C370.226 3.03662 371.275 5.27184 369.176 8.47011L238.019 204.491H370.925V204.495Z" fill="black"/>
<path d="M875.436 228C801.288 228 751.629 181.629 751.629 113.84C751.629 38.052 813.531 0 875.436 0C907.609 0 938.387 9.59124 962.169 29.7403C963.569 31.0197 963.569 32.6187 962.169 33.898L950.276 44.1325C949.577 44.7721 948.877 45.0919 947.828 45.0919C947.128 45.0919 946.083 44.7721 945.383 44.1325C931.741 33.2584 910.058 21.7483 875.436 21.7483C816.329 21.7483 776.111 58.8408 776.111 114.164C776.111 169.163 815.979 205.939 875.436 205.939C909.362 205.939 931.395 194.426 945.033 183.555C945.733 183.235 946.778 182.915 947.478 182.915C948.527 182.915 949.577 183.235 950.276 183.875L962.519 194.109C963.918 195.389 963.918 197.308 962.519 198.587C939.087 218.729 907.613 228 875.436 228Z" fill="black"/>
<path d="M1100 110.8L1198.28 4.95189C1199.33 3.99609 1200.37 3.03662 1202.12 3.03662H1225.55C1228.35 3.03662 1229.05 4.63573 1226.95 6.55102L1126.93 113.998L1238.14 221.118C1240.59 223.357 1239.89 224.956 1236.39 224.956H1211.21C1209.47 224.956 1207.72 224.317 1206.67 223.357L1100 117.2V222.082C1100 223.681 1098.6 224.96 1096.85 224.96H1079.01C1076.91 224.96 1075.52 223.681 1075.52 222.082V6.23487C1075.52 4.31959 1076.91 3.04044 1078.66 3.04044H1096.5C1098.6 3.04044 1100 4.31959 1100 6.23487V110.8Z" fill="black"/>
<path d="M567.503 3.54395H589.882C591.486 3.54395 592.929 4.43739 593.525 5.79758L687.507 220.446C688.456 222.622 686.703 224.986 684.142 224.986H473.947C471.386 224.986 469.633 222.622 470.582 220.446L563.856 5.80476C564.447 4.4409 565.895 3.54395 567.503 3.54395ZM500.921 206.153H656.817L578.688 25.6268L500.921 206.153Z" fill="black"/>
</svg>
